<svg id="Grupo_137" data-name="Grupo 137" xmlns="http://www.w3.org/2000/svg" width="199" height="65.095" viewBox="0 0 199 65.095">
  <path id="Caminho_76" data-name="Caminho 76" d="M295.641,590.367a8.8,8.8,0,0,1-8.795,8.8H105.438a8.8,8.8,0,0,1-8.8-8.8v-47.5a8.8,8.8,0,0,1,8.8-8.8H286.846a8.8,8.8,0,0,1,8.795,8.8Z" transform="translate(-96.641 -534.069)"/>
  <path id="Caminho_77" data-name="Caminho 77" d="M154,562.682H137.791a3.518,3.518,0,0,0-3.518,3.518v35.912a3.519,3.519,0,0,0,3.518,3.519H154a3.519,3.519,0,0,0,3.52-3.519V566.2A3.518,3.518,0,0,0,154,562.682Zm-8.1,40.366a2.343,2.343,0,1,1,2.344-2.344A2.342,2.342,0,0,1,145.9,603.048Zm8.861-5.827H137.035v-26.49h17.721Z" transform="translate(-119.632 -551.55)" fill="#fff"/>
  <g id="Grupo_16" data-name="Grupo 16" transform="translate(48.912 10.523)">
    <path id="Caminho_78" data-name="Caminho 78" d="M224.609,568.921l-.985,2.984h-1.267l3.223-9.488h1.478L230.3,571.9h-1.309l-1.014-2.984Zm3.111-.957-.943-2.731c-.2-.62-.338-1.182-.479-1.731h-.041c-.127.549-.282,1.14-.465,1.717l-.929,2.745Z" transform="translate(-222.357 -561.911)" fill="#fff"/>
    <path id="Caminho_79" data-name="Caminho 79" d="M243.942,569.292l1.337,3.816c.226.633.409,1.2.55,1.759h.042c.155-.562.351-1.126.577-1.759l1.324-3.816h1.3l-2.676,6.813h-1.182l-2.588-6.813Z" transform="translate(-234.736 -566.111)" fill="#fff"/>
    <path id="Caminho_80" data-name="Caminho 80" d="M265.464,574.23a11.424,11.424,0,0,0,.1,1.632h-1.112l-.113-.858H264.3a2.514,2.514,0,0,1-2.083,1.013,1.94,1.94,0,0,1-2.083-1.956c0-1.648,1.464-2.548,4.1-2.534v-.141a1.4,1.4,0,0,0-1.548-1.576,3.281,3.281,0,0,0-1.788.506l-.283-.831a4.422,4.422,0,0,1,2.252-.59c2.1,0,2.6,1.422,2.6,2.787Zm-1.211-1.845c-1.352-.028-2.884.211-2.884,1.534a1.085,1.085,0,0,0,1.153,1.182,1.721,1.721,0,0,0,1.676-1.14,1.282,1.282,0,0,0,.056-.395Z" transform="translate(-245.434 -565.869)" fill="#fff"/>
    <path id="Caminho_81" data-name="Caminho 81" d="M279.061,563.576a.8.8,0,0,1,.029-1.59.761.761,0,0,1,.789.788.775.775,0,0,1-.8.8Zm-.59,8.066v-6.813h1.239v6.813Z" transform="translate(-256.527 -561.648)" fill="#fff"/>
    <path id="Caminho_82" data-name="Caminho 82" d="M287.043,561.117h1.239v9.994h-1.239Z" transform="translate(-261.876 -561.117)" fill="#fff"/>
    <path id="Caminho_83" data-name="Caminho 83" d="M299.287,574.23a11.485,11.485,0,0,0,.1,1.632h-1.113L298.16,575h-.042a2.516,2.516,0,0,1-2.084,1.013,1.941,1.941,0,0,1-2.083-1.956c0-1.648,1.464-2.548,4.1-2.534v-.141a1.4,1.4,0,0,0-1.55-1.576,3.273,3.273,0,0,0-1.786.506l-.283-.831a4.42,4.42,0,0,1,2.253-.59c2.1,0,2.6,1.422,2.6,2.787Zm-1.21-1.845c-1.352-.028-2.886.211-2.886,1.534a1.086,1.086,0,0,0,1.154,1.182,1.72,1.72,0,0,0,1.676-1.14,1.259,1.259,0,0,0,.056-.395Z" transform="translate(-266.097 -565.869)" fill="#fff"/>
    <path id="Caminho_84" data-name="Caminho 84" d="M312.495,561.117h1.239v4.265h.029a2.526,2.526,0,0,1,2.321-1.238c1.69,0,2.872,1.408,2.872,3.463,0,2.449-1.549,3.659-3.068,3.659a2.44,2.44,0,0,1-2.28-1.281h-.03l-.07,1.126H312.44c.042-.465.055-1.154.055-1.759Zm1.239,7.264a2.225,2.225,0,0,0,.044.449,1.922,1.922,0,0,0,1.857,1.45c1.31,0,2.069-1.055,2.069-2.618,0-1.38-.7-2.547-2.026-2.547a2.055,2.055,0,0,0-1.943,2.04Z" transform="translate(-277.392 -561.117)" fill="#fff"/>
    <path id="Caminho_85" data-name="Caminho 85" d="M332.986,561.117h1.238v9.994h-1.238Z" transform="translate(-289.944 -561.117)" fill="#fff"/>
    <path id="Caminho_86" data-name="Caminho 86" d="M341.2,572.645a2.171,2.171,0,0,0,2.322,2.365,4.688,4.688,0,0,0,1.887-.338l.225.872a5.541,5.541,0,0,1-2.28.437,3.178,3.178,0,0,1-3.35-3.434c0-2.069,1.224-3.688,3.211-3.688,2.222,0,2.8,1.957,2.8,3.209a3.205,3.205,0,0,1-.042.592Zm3.617-.886a1.769,1.769,0,0,0-1.7-2.014,2.044,2.044,0,0,0-1.9,2.014Z" transform="translate(-294.23 -565.846)" fill="#fff"/>
    <path id="Caminho_87" data-name="Caminho 87" d="M368.7,576.017a3.247,3.247,0,0,1-3.266-3.505,3.334,3.334,0,0,1,3.378-3.617,3.222,3.222,0,0,1,3.279,3.491,3.339,3.339,0,0,1-3.378,3.631Zm.042-.928c1.183,0,2.069-1.112,2.069-2.661,0-1.154-.576-2.6-2.04-2.6s-2.083,1.352-2.083,2.647c0,1.492.844,2.619,2.041,2.619Z" transform="translate(-309.767 -565.869)" fill="#fff"/>
    <path id="Caminho_88" data-name="Caminho 88" d="M386.291,570.895c0-.719-.016-1.281-.059-1.845h1.1l.07,1.112h.028a2.524,2.524,0,0,1,2.252-1.266c.943,0,2.41.563,2.41,2.9v4.067h-1.241v-3.928c0-1.1-.407-2.027-1.577-2.027a1.788,1.788,0,0,0-1.661,1.267,1.854,1.854,0,0,0-.084.578v4.11h-1.237Z" transform="translate(-322.474 -565.869)" fill="#fff"/>
    <path id="Caminho_89" data-name="Caminho 89" d="M414.041,565.1v1.632h1.772v.943h-1.772v3.674c0,.844.239,1.323.928,1.323a2.309,2.309,0,0,0,.72-.084l.055.943a3.365,3.365,0,0,1-1.1.169,1.771,1.771,0,0,1-1.339-.52,2.673,2.673,0,0,1-.478-1.789v-3.716h-1.055v-.943h1.055v-1.253Z" transform="translate(-338.079 -563.549)" fill="#fff"/>
    <path id="Caminho_90" data-name="Caminho 90" d="M425.557,561.117H426.8v4.251h.027a2.2,2.2,0,0,1,.888-.872,2.408,2.408,0,0,1,1.268-.352c.914,0,2.377.563,2.377,2.914v4.053h-1.237V567.2c0-1.112-.409-2.028-1.577-2.028a1.793,1.793,0,0,0-1.66,1.239,1.494,1.494,0,0,0-.085.592v4.11h-1.238Z" transform="translate(-346.499 -561.117)" fill="#fff"/>
    <path id="Caminho_91" data-name="Caminho 91" d="M445.382,572.645a2.172,2.172,0,0,0,2.322,2.365,4.7,4.7,0,0,0,1.888-.338l.224.872a5.55,5.55,0,0,1-2.281.437,3.178,3.178,0,0,1-3.35-3.434c0-2.069,1.225-3.688,3.21-3.688,2.224,0,2.8,1.957,2.8,3.209a3.162,3.162,0,0,1-.043.592Zm3.618-.886a1.769,1.769,0,0,0-1.7-2.014,2.042,2.042,0,0,0-1.9,2.014Z" transform="translate(-357.879 -565.846)" fill="#fff"/>
    <path id="Caminho_92" data-name="Caminho 92" d="M471.188,563.576a.8.8,0,0,1,.028-1.59.761.761,0,0,1,.788.788.776.776,0,0,1-.8.8Zm-.593,8.066v-6.813h1.238v6.813Z" transform="translate(-373.902 -561.648)" fill="#fff"/>
    <path id="Caminho_93" data-name="Caminho 93" d="M479.275,562.434a12.73,12.73,0,0,1,2.351-.2,3.884,3.884,0,0,1,2.659.789,2.555,2.555,0,0,1,.846,1.984,2.739,2.739,0,0,1-.747,2.027,3.925,3.925,0,0,1-2.9,1.042A4.307,4.307,0,0,1,480.5,568v3.8h-1.225Zm1.225,4.561a4.181,4.181,0,0,0,1.013.1c1.492,0,2.379-.731,2.379-2.013s-.887-1.872-2.238-1.872a6.059,6.059,0,0,0-1.154.1Z" transform="translate(-379.317 -561.801)" fill="#fff"/>
    <path id="Caminho_94" data-name="Caminho 94" d="M498.053,561.117h1.239v4.251h.028a2.2,2.2,0,0,1,.886-.872,2.415,2.415,0,0,1,1.268-.352c.915,0,2.378.563,2.378,2.914v4.053h-1.238V567.2c0-1.112-.409-2.028-1.577-2.028a1.8,1.8,0,0,0-1.661,1.239,1.494,1.494,0,0,0-.084.592v4.11h-1.239Z" transform="translate(-390.789 -561.117)" fill="#fff"/>
    <path id="Caminho_95" data-name="Caminho 95" d="M519.95,576.017a3.247,3.247,0,0,1-3.266-3.505,3.335,3.335,0,0,1,3.379-3.617,3.221,3.221,0,0,1,3.278,3.491,3.338,3.338,0,0,1-3.377,3.631Zm.043-.928c1.18,0,2.069-1.112,2.069-2.661,0-1.154-.577-2.6-2.042-2.6-1.449,0-2.084,1.352-2.084,2.647,0,1.492.844,2.619,2.041,2.619Z" transform="translate(-402.171 -565.869)" fill="#fff"/>
    <path id="Caminho_96" data-name="Caminho 96" d="M537.542,570.895c0-.719-.014-1.281-.056-1.845h1.1l.07,1.112h.029a2.525,2.525,0,0,1,2.252-1.266c.943,0,2.406.563,2.406,2.9v4.067H542.1v-3.928c0-1.1-.409-2.027-1.577-2.027a1.787,1.787,0,0,0-1.66,1.267,1.832,1.832,0,0,0-.087.578v4.11h-1.237Z" transform="translate(-414.88 -565.869)" fill="#fff"/>
    <path id="Caminho_97" data-name="Caminho 97" d="M557.457,572.645a2.172,2.172,0,0,0,2.323,2.365,4.685,4.685,0,0,0,1.885-.338l.226.872a5.552,5.552,0,0,1-2.28.437,3.178,3.178,0,0,1-3.35-3.434c0-2.069,1.225-3.688,3.209-3.688,2.224,0,2.8,1.957,2.8,3.209a3.215,3.215,0,0,1-.042.592Zm3.618-.886a1.769,1.769,0,0,0-1.7-2.014,2.042,2.042,0,0,0-1.9,2.014Z" transform="translate(-426.349 -565.846)" fill="#fff"/>
  </g>
  <g id="Grupo_17" data-name="Grupo 17" transform="translate(48.65 26.552)">
    <path id="Caminho_98" data-name="Caminho 98" d="M230.029,603.32l-8.346,24.567H225.5L228,620.344h8.081l2.562,7.544h3.928l-8.382-24.567Zm1.98,4.039c.282,1.1.586,2.235.977,3.465l2.249,6.514h-6.4l2.218-6.556C231.39,609.72,231.71,608.571,232.009,607.359Z" transform="translate(-221.683 -602.929)" fill="#fff"/>
    <path id="Caminho_99" data-name="Caminho 99" d="M288.27,619.69a6.953,6.953,0,0,0-5.909,2.834l-.148-2.444h-3.4l.02.313c.1,1.522.142,3.2.142,5.6v18.936h3.716V636.1a6.528,6.528,0,0,0,5.081,2.183,7.666,7.666,0,0,0,5.633-2.394,10.159,10.159,0,0,0,2.487-7.149,9.886,9.886,0,0,0-2.16-6.528A7.07,7.07,0,0,0,288.27,619.69Zm-.926,3.077c3.313,0,4.8,3.069,4.8,6.11,0,3.924-1.892,6.36-4.937,6.36a4.506,4.506,0,0,1-4.379-3.449,4.755,4.755,0,0,1-.133-1.2V627.6a5.544,5.544,0,0,1,.119-.917c.018-.1.038-.2.053-.3A4.706,4.706,0,0,1,287.344,622.767Z" transform="translate(-256.586 -612.93)" fill="#fff"/>
    <path id="Caminho_100" data-name="Caminho 100" d="M337.466,619.69a6.957,6.957,0,0,0-5.91,2.834l-.147-2.444h-3.4l.019.313c.1,1.524.142,3.2.142,5.6v18.936h3.718V636.1a6.523,6.523,0,0,0,5.079,2.183,7.673,7.673,0,0,0,5.635-2.394,10.167,10.167,0,0,0,2.485-7.149,9.889,9.889,0,0,0-2.161-6.528A7.068,7.068,0,0,0,337.466,619.69Zm-.925,3.077c3.312,0,4.795,3.069,4.795,6.11,0,3.924-1.893,6.36-4.937,6.36a4.506,4.506,0,0,1-4.379-3.449,4.762,4.762,0,0,1-.131-1.2V627.6a5.374,5.374,0,0,1,.119-.921c.018-.1.036-.2.053-.3A4.7,4.7,0,0,1,336.541,622.767Z" transform="translate(-286.641 -612.93)" fill="#fff"/>
    <path id="Caminho_101" data-name="Caminho 101" d="M400.051,613.115c-3.469-1.343-4.58-2.4-4.58-4.352,0-1.643,1.306-3.3,4.225-3.3a8.445,8.445,0,0,1,4.363,1.095l.316.195,1.049-3.1-.207-.122a10.774,10.774,0,0,0-5.413-1.214c-4.74,0-8.051,2.8-8.051,6.8,0,3.23,2.073,5.488,6.525,7.106,3.153,1.179,4.328,2.387,4.328,4.458,0,2.343-1.811,3.8-4.724,3.8a10.176,10.176,0,0,1-5.357-1.519l-.322-.207-1,3.174.183.121a12.722,12.722,0,0,0,6.281,1.615c6.388,0,8.654-3.9,8.654-7.232C406.321,616.993,404.505,614.872,400.051,613.115Z" transform="translate(-325.248 -602.314)" fill="#fff"/>
    <path id="Caminho_102" data-name="Caminho 102" d="M437.343,609.816,433.7,610.96v3.088h-2.668v2.971H433.7v9.1c0,2.2.421,3.742,1.287,4.716a4.766,4.766,0,0,0,3.6,1.412,8.742,8.742,0,0,0,2.873-.444l.208-.074-.178-2.976-.356.11a5.6,5.6,0,0,1-1.729.2c-1.441,0-2.055-.912-2.055-3.051v-8.992h4.483v-2.971h-4.483Z" transform="translate(-349.579 -606.897)" fill="#fff"/>
    <path id="Caminho_103" data-name="Caminho 103" d="M468.588,619.69c-5.2,0-8.832,3.881-8.832,9.436,0,5.389,3.514,9.153,8.547,9.153h.035c4.255,0,8.833-2.964,8.833-9.472a9.392,9.392,0,0,0-2.369-6.575A8.271,8.271,0,0,0,468.588,619.69Zm-.107,2.934c3.344,0,4.865,3.26,4.865,6.29,0,3.726-2.076,6.43-4.936,6.43h-.036c-2.819,0-4.866-2.659-4.866-6.323C463.509,625.837,465.046,622.624,468.481,622.624Z" transform="translate(-367.13 -612.93)" fill="#fff"/>
    <path id="Caminho_104" data-name="Caminho 104" d="M519.248,619.862l-.223-.056a3.573,3.573,0,0,0-.925-.115,5.3,5.3,0,0,0-4.66,2.992l-.11-2.6H510l.021.313c.1,1.471.141,3.123.141,5.353l-.035,12.142h3.717v-9.473a9.7,9.7,0,0,1,.1-1.44c.42-2.276,1.955-3.746,3.911-3.746a9.633,9.633,0,0,1,1,.062l.4.041Z" transform="translate(-397.823 -612.93)" fill="#fff"/>
    <path id="Caminho_105" data-name="Caminho 105" d="M542.059,619.6c-4.949,0-8.405,3.953-8.405,9.614,0,5.452,3.439,8.975,8.76,8.975a14.271,14.271,0,0,0,5.885-1.129l.223-.1-.714-2.769-.311.125a11.51,11.51,0,0,1-4.657.833c-1.615,0-5.338-.533-5.567-5.389l12,.035.048-.237a8.23,8.23,0,0,0,.112-1.551C549.433,624.127,547.5,619.6,542.059,619.6Zm-.249,2.827a3.667,3.667,0,0,1,2.729,1.041,5.284,5.284,0,0,1,1.28,3.46h-8.476C537.687,624.781,539.031,622.426,541.811,622.426Z" transform="translate(-412.276 -612.874)" fill="#fff"/>
  </g>
</svg>
