<?xml version="1.0" encoding="utf-8"?>
<!-- Generator: Adobe Illustrator 24.0.3, SVG Export Plug-In . SVG Version: 6.00 Build 0)  -->
<svg version="1.1" id="Grupo_138" xmlns="http://www.w3.org/2000/svg" xmlns:xlink="http://www.w3.org/1999/xlink" x="0px" y="0px"
	 viewBox="0 0 219.6 65.1" style="enable-background:new 0 0 219.6 65.1;" xml:space="preserve">
<style type="text/css">
	.st0{clip-path:url(#SVGID_2_);}
	.st1{fill:url(#Caminho_107_1_);}
	.st2{fill:url(#Caminho_108_1_);}
	.st3{fill:url(#Caminho_109_1_);}
	.st4{fill:url(#Caminho_110_1_);}
	.st5{fill:#F9F9F9;}
	.st6{fill:#FFFFFF;stroke:#FFFFFF;stroke-width:0.2;stroke-miterlimit:10;}
	.st7{fill:#FFFFFF;}
	.st8{fill:url(#SVGID_3_);}
	.st9{fill:url(#SVGID_4_);}
	.st10{fill:url(#SVGID_5_);}
	.st11{fill:url(#SVGID_6_);}
	.st12{opacity:0.2;enable-background:new    ;}
	.st13{opacity:0.12;enable-background:new    ;}
	.st14{opacity:0.25;fill:#FFFFFF;enable-background:new    ;}
</style>
<g id="PLAY" transform="translate(14.927 13.047)">
	<g>
		<g>
			<defs>
				<path id="SVGID_1_" d="M28.2,15.4l-9-5.2L1.9,0.3C1-0.3,0,0,0,1.2v40.7c0,0.9,0.7,1.2,1.5,0.8l17.7-10.2l9-5.2l8.6-5
					c1-0.6,0.9-1.4,0.1-1.8S28.2,15.4,28.2,15.4z"/>
			</defs>
			<clipPath id="SVGID_2_">
				<use xlink:href="#SVGID_1_"  style="overflow:visible;"/>
			</clipPath>
			<g id="Grupo_19" class="st0">
				
					<linearGradient id="Caminho_107_1_" gradientUnits="userSpaceOnUse" x1="-397.035" y1="17.6027" x2="-397.035" y2="18.6031" gradientTransform="matrix(22.229 0 0 44.083 8836.791 -776.6814)">
					<stop  offset="0" style="stop-color:#1368A1"/>
					<stop  offset="0.326" style="stop-color:#3E88A6"/>
					<stop  offset="0.78" style="stop-color:#75B2AE"/>
					<stop  offset="1" style="stop-color:#8BC3B1"/>
				</linearGradient>
				<path id="Caminho_107" class="st1" d="M0-0.7v44.1l22.2-22L0-0.7z"/>
				
					<linearGradient id="Caminho_108_1_" gradientUnits="userSpaceOnUse" x1="-401.2011" y1="35.4538" x2="-400.201" y2="35.4538" gradientTransform="matrix(28.199 0 0 22.202 11313.4688 -776.8448)">
					<stop  offset="0" style="stop-color:#5BAE9A"/>
					<stop  offset="1" style="stop-color:#E9E587"/>
				</linearGradient>
				<path id="Caminho_108" class="st2" d="M28.2,15.4l-9-5.2L0-0.8v0.2l22.2,22L28.2,15.4z"/>
				
					<linearGradient id="Caminho_109_1_" gradientUnits="userSpaceOnUse" x1="-400.7009" y1="34.9549" x2="-400.7009" y2="35.9549" gradientTransform="matrix(28.199 0 0 22.2 11313.4658 -754.6453)">
					<stop  offset="0" style="stop-color:#D92F27"/>
					<stop  offset="0.228" style="stop-color:#BE323F"/>
					<stop  offset="0.748" style="stop-color:#873972"/>
					<stop  offset="1" style="stop-color:#723C87"/>
				</linearGradient>
				<path id="Caminho_109" class="st3" d="M0,43.4v0.2l19.2-11.1l9-5.2l-6-5.9L0,43.4z"/>
				
					<linearGradient id="Caminho_110_1_" gradientUnits="userSpaceOnUse" x1="-390.6247" y1="65.5405" x2="-390.6247" y2="66.5405" gradientTransform="matrix(16.225 0 0 11.84 6368.2358 -760.5657)">
					<stop  offset="0" style="stop-color:#E87867"/>
					<stop  offset="0.663" style="stop-color:#F8AC61"/>
					<stop  offset="1" style="stop-color:#FFC25F"/>
				</linearGradient>
				<path id="Caminho_110" class="st4" d="M28.2,15.4l-6,5.9l6,5.9l10.3-5.9L28.2,15.4z"/>
			</g>
		</g>
	</g>
</g>
<g id="Grupo_20" transform="translate(148.906 24.585)">
	<path id="Caminho_112" class="st5" d="M6,18.4c-0.8,0-1.6-0.1-2.3-0.5C3,17.6,2.4,17.1,2,16.5H1.8c0.1,0.7,0.1,1.4,0.1,2.1V24H0
		V5.4h1.6l0.3,1.8H2C2.4,6.5,3,6,3.7,5.6C4.4,5.3,5.2,5.1,6,5.1C7.5,5,9,5.7,9.9,6.8c1.9,3,1.8,6.8,0,9.8C8.9,17.9,7.5,18.5,6,18.4z
		 M5.7,6.8C4.6,6.7,3.6,7.1,2.8,7.9c-0.7,1-1,2.2-0.9,3.5v0.4c-0.1,1.4,0.2,2.7,0.9,3.9c0.7,0.8,1.8,1.3,2.9,1.2c1,0,2-0.5,2.6-1.3
		c0.7-1.1,1-2.4,0.9-3.7C9.4,10.5,9,9.2,8.3,8.1C7.7,7.2,6.7,6.7,5.7,6.8L5.7,6.8z"/>
	<path id="Caminho_113" class="st5" d="M15.8,18.2h-1.9V0h1.9V18.2z"/>
	<path id="Caminho_114" class="st5" d="M26.9,18.2l-0.4-1.8h-0.1c-0.5,0.7-1.2,1.2-1.9,1.6c-0.8,0.3-1.6,0.5-2.4,0.4
		c-1.1,0.1-2.2-0.3-3-1S18,15.6,18,14.6c0-2.6,2.1-3.9,6.2-4.1l2.2-0.1V9.7c0.1-0.8-0.2-1.6-0.7-2.2c-0.6-0.5-1.3-0.8-2.1-0.7
		c-1.3,0.1-2.5,0.4-3.6,1l-0.6-1.5c0.7-0.4,1.4-0.6,2.1-0.8c0.7-0.2,1.5-0.3,2.3-0.3c1.2-0.1,2.4,0.3,3.4,1c0.8,0.9,1.2,2.1,1.1,3.3
		v8.7H26.9z M22.6,16.8c1,0.1,2.1-0.3,2.8-1c0.7-0.7,1.1-1.8,1-2.8v-1.2L24.5,12c-1.2,0-2.3,0.2-3.3,0.7c-0.7,0.4-1.1,1.2-1,2
		c0,0.6,0.2,1.2,0.6,1.6C21.3,16.7,21.9,16.9,22.6,16.8z"/>
	<path id="Caminho_115" class="st5" d="M29.5,5.4h2.1l2.8,7.3c0.5,1.2,0.8,2.4,1.1,3.6h0.1c0.1-0.4,0.3-1.1,0.6-2s1.4-3.9,3.2-8.9
		h2.1L36,20c-0.4,1.2-1,2.2-1.9,3.1c-0.8,0.6-1.7,0.9-2.7,0.9c-0.6,0-1.2-0.1-1.8-0.2v-1.6c0.5,0.1,1,0.1,1.4,0.1
		c1.4,0,2.5-0.9,2.9-2.2l0.7-1.8L29.5,5.4z"/>
</g>
<g>
	<path d="M211.4,65.1H8.1C3.6,65.1,0,61.4,0,57V8.1C0,3.7,3.7,0,8.1,0h203.3c4.5,0,8.1,3.7,8.1,8.1v48.8
		C219.6,61.4,215.9,65.1,211.4,65.1z"/>
</g>
<g>
	<path class="st6" d="M77.1,16.7c0,1.4-0.4,2.4-1.2,3.3c-0.9,1-2.1,1.4-3.6,1.4c-1.4,0-2.6-0.5-3.6-1.5s-1.5-2.2-1.5-3.6
		s0.5-2.7,1.5-3.6c1-1,2.2-1.5,3.6-1.5c0.7,0,1.4,0.1,2,0.4c0.6,0.3,1.1,0.6,1.5,1.1L75,13.5c-0.6-0.8-1.5-1.2-2.7-1.2
		c-1,0-1.9,0.4-2.7,1.1c-0.7,0.7-1.1,1.7-1.1,2.8s0.4,2.1,1.1,2.8c0.7,0.7,1.6,1.1,2.7,1.1s2-0.4,2.7-1.1c0.5-0.5,0.7-1.1,0.8-2
		h-3.5v-1.2H77C77.1,16.2,77.1,16.4,77.1,16.7z"/>
	<path class="st6" d="M84.6,12.6h-4.4v3.1h4v1.2h-4V20h4.4v1.2h-5.7v-9.8h5.7V12.6z"/>
	<path class="st6" d="M89.9,21.1h-1.3v-8.6h-2.7v-1.2h6.7v1.2h-2.7V21.1z"/>
	<path class="st6" d="M97.5,21.1v-9.8h1.3v9.8H97.5z"/>
	<path class="st6" d="M104.3,21.1H103v-8.6h-2.7v-1.2h6.7v1.2h-2.7V21.1z"/>
	<path class="st6" d="M119.7,19.9c-1,1-2.2,1.5-3.6,1.5s-2.6-0.5-3.6-1.5s-1.4-2.2-1.4-3.6s0.5-2.6,1.4-3.6c1-1,2.2-1.5,3.6-1.5
		s2.6,0.5,3.6,1.5s1.4,2.2,1.4,3.6C121.2,17.7,120.7,18.9,119.7,19.9z M113.5,19.1c0.7,0.7,1.6,1.1,2.7,1.1c1,0,1.9-0.4,2.7-1.1
		c0.7-0.7,1.1-1.7,1.1-2.8s-0.4-2.1-1.1-2.8s-1.6-1.1-2.7-1.1c-1,0-1.9,0.4-2.7,1.1c-0.7,0.7-1.1,1.7-1.1,2.8S112.8,18.3,113.5,19.1
		z"/>
	<path class="st6" d="M122.9,21.1v-9.8h1.5l4.7,7.6h0.1l-0.1-1.9v-5.7h1.3v9.8h-1.3l-5-8H124l0.1,1.9v6.1H122.9z"/>
</g>
<path class="st7" d="M110.8,35.4c-3.8,0-6.9,2.9-6.9,6.9s3.1,6.9,6.9,6.9s6.9-2.9,6.9-6.9C117.8,38.3,114.6,35.4,110.8,35.4z
	 M110.8,46.5c-2.1,0-3.9-1.7-3.9-4.2s1.8-4.2,3.9-4.2s3.9,1.7,3.9,4.2C114.7,44.8,112.9,46.5,110.8,46.5z M95.7,35.4
	c-3.8,0-6.9,2.9-6.9,6.9s3.1,6.9,6.9,6.9s6.9-2.9,6.9-6.9S99.5,35.4,95.7,35.4z M95.7,46.5c-2.1,0-3.9-1.7-3.9-4.2s1.8-4.2,3.9-4.2
	s3.9,1.7,3.9,4.2S97.8,46.5,95.7,46.5z M77.7,37.5v2.9h7c-0.2,1.7-0.8,2.9-1.6,3.7c-1,1-2.6,2.1-5.4,2.1c-4.3,0-7.7-3.5-7.7-7.8
	s3.4-7.8,7.7-7.8c2.3,0,4,0.9,5.3,2.1l2.1-2.1c-1.8-1.7-4.1-3-7.4-3c-5.9,0-10.9,4.8-10.9,10.7S71.8,49,77.7,49c3.2,0,5.6-1,7.5-3
	c1.9-1.9,2.5-4.7,2.5-6.9c0-0.7-0.1-1.3-0.2-1.8h-9.8V37.5z M151.4,39.8c-0.6-1.5-2.3-4.4-5.9-4.4c-3.6,0-6.5,2.8-6.5,6.9
	c0,3.9,2.9,6.9,6.9,6.9c3.2,0,5-1.9,5.8-3.1l-2.4-1.6c-0.8,1.2-1.9,1.9-3.4,1.9s-2.6-0.7-3.4-2.1l9.3-3.8L151.4,39.8z M141.9,42.1
	c-0.1-2.7,2.1-4,3.6-4c1.2,0,2.2,0.6,2.6,1.5L141.9,42.1z M134.4,48.8h3V28.5h-3V48.8z M129.4,36.9h-0.1c-0.7-0.8-2-1.5-3.6-1.5
	c-3.5,0-6.6,3-6.6,6.9s3.2,6.9,6.6,6.9c1.7,0,3-0.7,3.6-1.6h0.1v1c0,2.6-1.4,4.1-3.7,4.1c-1.9,0-3-1.3-3.5-2.5l-2.6,1.1
	c0.8,1.8,2.8,4.1,6.1,4.1c3.6,0,6.6-2.1,6.6-7.2V35.8h-2.9L129.4,36.9L129.4,36.9z M125.9,46.5c-2.1,0-3.9-1.8-3.9-4.2
	s1.8-4.2,3.9-4.2s3.7,1.8,3.7,4.2S128,46.5,125.9,46.5z M165.6,28.5h-7.3v20.3h3v-7.7h4.2c3.4,0,6.7-2.4,6.7-6.3
	S169,28.5,165.6,28.5z M165.7,38.3h-4.3v-7h4.3c2.3,0,3.6,1.9,3.6,3.5C169.2,36.4,167.9,38.3,165.7,38.3z M184.4,35.3
	c-2.2,0-4.5,1-5.4,3.1l2.7,1.1c0.6-1.1,1.6-1.5,2.8-1.5c1.6,0,3.2,0.9,3.2,2.6v0.2c-0.5-0.3-1.7-0.8-3.2-0.8c-2.9,0-5.9,1.6-5.9,4.6
	c0,2.7,2.4,4.5,5,4.5c2,0,3.2-0.9,3.9-2h0.1v1.6h2.9V41C190.6,37.4,187.9,35.3,184.4,35.3z M184.1,46.5c-1,0-2.4-0.5-2.4-1.7
	c0-1.6,1.7-2.2,3.2-2.2c1.3,0,2,0.3,2.8,0.7C187.4,45.2,185.8,46.5,184.1,46.5z M201.3,35.8l-3.5,8.8h-0.1l-3.6-8.8h-3.3l5.4,12.3
	l-3.1,6.9h3.2l8.3-19.2H201.3z M173.9,48.8h3V28.5h-3V48.8z"/>
<g>
	
		<linearGradient id="SVGID_3_" gradientUnits="userSpaceOnUse" x1="35.4704" y1="788.2899" x2="8.1736" y2="815.5867" gradientTransform="matrix(1 0 0 1 0 -774.1103)">
		<stop  offset="0" style="stop-color:#00A0FF"/>
		<stop  offset="6.574450e-03" style="stop-color:#00A1FF"/>
		<stop  offset="0.2601" style="stop-color:#00BEFF"/>
		<stop  offset="0.5122" style="stop-color:#00D2FF"/>
		<stop  offset="0.7604" style="stop-color:#00DFFF"/>
		<stop  offset="1" style="stop-color:#00E3FF"/>
	</linearGradient>
	<path class="st8" d="M17,12.3c-0.5,0.5-0.8,1.3-0.8,2.3v36c0,1,0.3,1.8,0.8,2.3l0.1,0.1l20.2-20.2v-0.2v-0.2L17.1,12.1L17,12.3z"/>
	
		<linearGradient id="SVGID_4_" gradientUnits="userSpaceOnUse" x1="55.032" y1="806.7103" x2="15.6753" y2="806.7103" gradientTransform="matrix(1 0 0 1 0 -774.1103)">
		<stop  offset="0" style="stop-color:#FFE000"/>
		<stop  offset="0.4087" style="stop-color:#FFBD00"/>
		<stop  offset="0.7754" style="stop-color:#FFA500"/>
		<stop  offset="1" style="stop-color:#FF9C00"/>
	</linearGradient>
	<path class="st9" d="M44,39.5l-6.7-6.7v-0.2v-0.2l6.7-6.7l0.2,0.1l8,4.5c2.3,1.3,2.3,3.4,0,4.7l-8,4.5L44,39.5z"/>
	
		<linearGradient id="SVGID_5_" gradientUnits="userSpaceOnUse" x1="40.3581" y1="810.3522" x2="3.3414" y2="847.3688" gradientTransform="matrix(1 0 0 1 0 -774.1103)">
		<stop  offset="0" style="stop-color:#FF3A44"/>
		<stop  offset="1" style="stop-color:#C31162"/>
	</linearGradient>
	<path class="st10" d="M44.1,39.4l-6.9-6.9L17,52.8c0.7,0.8,2,0.9,3.4,0.1L44.1,39.4"/>
	
		<linearGradient id="SVGID_6_" gradientUnits="userSpaceOnUse" x1="11.8529" y1="774.4131" x2="28.3824" y2="790.9427" gradientTransform="matrix(1 0 0 1 0 -774.1103)">
		<stop  offset="0" style="stop-color:#32A071"/>
		<stop  offset="6.850000e-02" style="stop-color:#2DA771"/>
		<stop  offset="0.4762" style="stop-color:#15CF74"/>
		<stop  offset="0.8009" style="stop-color:#06E775"/>
		<stop  offset="1" style="stop-color:#00F076"/>
	</linearGradient>
	<path class="st11" d="M44.1,25.7L20.4,12.2c-1.4-0.8-2.6-0.7-3.4,0.1l20.3,20.3L44.1,25.7z"/>
	<g>
		<path class="st12" d="M44,39.3L20.4,52.7c-1.3,0.8-2.5,0.7-3.3,0l0,0L17,52.8l0,0l0.1,0.1l0,0c0.8,0.7,1.9,0.7,3.3,0l23.8-13.5
			L44,39.3z"/>
		<path class="st13" d="M17,52.6c-0.5-0.5-0.8-1.3-0.8-2.3v0.2c0,1,0.3,1.8,0.8,2.3l0.1-0.1L17,52.6z"/>
	</g>
	<path class="st13" d="M52.1,34.6L44,39.3l0.2,0.2l8-4.5c1.1-0.6,1.7-1.5,1.7-2.3l0,0C53.7,33.3,53.1,34.1,52.1,34.6z"/>
	<path class="st14" d="M20.4,12.4l31.7,18c1,0.6,1.6,1.3,1.7,2.1l0,0c0-0.9-0.6-1.7-1.7-2.3l-31.7-18c-2.3-1.3-4.1-0.2-4.1,2.4v0.2
		C16.2,12.2,18.1,11.1,20.4,12.4z"/>
</g>
</svg>
