<svg xmlns="http://www.w3.org/2000/svg" width="309.645" height="33.143" viewBox="0 0 309.645 33.143">
  <path id="Caminho_5103" data-name="Caminho 5103" d="M10.305-12.127V0H2.7V-32.783H13.365a21.886,21.886,0,0,1,6.064.731,11.384,11.384,0,0,1,4.1,2.036,7.707,7.707,0,0,1,2.306,3.082,10.212,10.212,0,0,1,.72,3.87,10.389,10.389,0,0,1-.427,3.015,9.13,9.13,0,0,1-1.271,2.621,9.838,9.838,0,0,1-2.07,2.149,10.992,10.992,0,0,1-2.824,1.552,7.148,7.148,0,0,1,1.429.945,5.623,5.623,0,0,1,1.159,1.373L29.52,0H22.635A2.921,2.921,0,0,1,19.89-1.44l-5.445-9.517a2.292,2.292,0,0,0-.844-.9,2.823,2.823,0,0,0-1.361-.27Zm0-5.243h3.06a7.824,7.824,0,0,0,2.644-.394A4.777,4.777,0,0,0,17.8-18.855a4.156,4.156,0,0,0,1.013-1.631,6.261,6.261,0,0,0,.315-2.014,4.223,4.223,0,0,0-1.406-3.375,6.546,6.546,0,0,0-4.354-1.215h-3.06ZM60.93-32.783v5.85H47.475v7.65H57.78v5.625H47.475V-5.85H60.93V0h-21.1V-32.783ZM102.96,0H97.065a2.725,2.725,0,0,1-1.631-.461,2.382,2.382,0,0,1-.889-1.181L92.61-7.357H80.145L78.21-1.642a2.533,2.533,0,0,1-.877,1.136,2.527,2.527,0,0,1-1.6.506h-5.94l12.69-32.783H90.27ZM81.9-12.532h8.955L87.84-21.51q-.292-.855-.686-2.014t-.776-2.509q-.36,1.372-.743,2.542t-.72,2.025Zm38.52,6.457h12.15V0H112.815V-32.783h7.605ZM189-16.4a17.19,17.19,0,0,1-1.226,6.559,15.345,15.345,0,0,1-3.454,5.2,15.664,15.664,0,0,1-5.366,3.42A18.989,18.989,0,0,1,171.99,0H159.255V-32.783H171.99a18.835,18.835,0,0,1,6.964,1.238,15.89,15.89,0,0,1,5.366,3.42,15.225,15.225,0,0,1,3.454,5.186A17.129,17.129,0,0,1,189-16.4Zm-7.785,0a14.282,14.282,0,0,0-.63-4.388,9.374,9.374,0,0,0-1.811-3.319,7.866,7.866,0,0,0-2.891-2.093,9.816,9.816,0,0,0-3.893-.731H166.9V-5.85h5.085a9.816,9.816,0,0,0,3.893-.731,7.866,7.866,0,0,0,2.891-2.093,9.374,9.374,0,0,0,1.811-3.319A14.362,14.362,0,0,0,181.215-16.4Zm26.235,4.275V0h-7.605V-32.783H210.51a21.886,21.886,0,0,1,6.064.731,11.384,11.384,0,0,1,4.1,2.036,7.707,7.707,0,0,1,2.306,3.082,10.212,10.212,0,0,1,.72,3.87,10.389,10.389,0,0,1-.428,3.015A9.13,9.13,0,0,1,222-17.426a9.838,9.838,0,0,1-2.07,2.149,10.991,10.991,0,0,1-2.824,1.552,7.148,7.148,0,0,1,1.429.945,5.623,5.623,0,0,1,1.159,1.373L226.665,0H219.78a2.921,2.921,0,0,1-2.745-1.44l-5.445-9.517a2.292,2.292,0,0,0-.844-.9,2.823,2.823,0,0,0-1.361-.27Zm0-5.243h3.06a7.824,7.824,0,0,0,2.644-.394,4.777,4.777,0,0,0,1.789-1.091,4.156,4.156,0,0,0,1.012-1.631,6.261,6.261,0,0,0,.315-2.014,4.223,4.223,0,0,0-1.406-3.375,6.546,6.546,0,0,0-4.354-1.215h-3.06Zm41.8,11.363a6.994,6.994,0,0,0,2.734-.506,5.529,5.529,0,0,0,2.036-1.451,6.414,6.414,0,0,0,1.271-2.306,10.071,10.071,0,0,0,.439-3.094V-32.783h7.6v19.418a15.165,15.165,0,0,1-.979,5.535,12.416,12.416,0,0,1-2.8,4.342,12.64,12.64,0,0,1-4.432,2.835A16.13,16.13,0,0,1,249.255.36a16.2,16.2,0,0,1-5.9-1.012,12.641,12.641,0,0,1-4.433-2.835,12.285,12.285,0,0,1-2.79-4.342,15.322,15.322,0,0,1-.967-5.535V-32.783h7.6v19.4a10.071,10.071,0,0,0,.439,3.094,6.53,6.53,0,0,0,1.271,2.318,5.472,5.472,0,0,0,2.036,1.462A6.994,6.994,0,0,0,249.255-6.007Zm43-8.978q.45.855.866,1.778t.8,1.89q.383-.99.81-1.924t.878-1.811l8.415-16.56a2.75,2.75,0,0,1,.461-.664,1.51,1.51,0,0,1,.529-.349,2.217,2.217,0,0,1,.664-.135q.371-.023.866-.023h5.8V0h-6.7V-18.855q0-1.372.135-2.97L297.09-4.972A2.861,2.861,0,0,1,296-3.78a3.018,3.018,0,0,1-1.564.4H293.4a3.018,3.018,0,0,1-1.564-.4,2.861,2.861,0,0,1-1.091-1.192l-8.73-16.875q.09.787.135,1.564t.045,1.429V0h-6.7V-32.783h5.8q.495,0,.866.023a2.217,2.217,0,0,1,.664.135,1.511,1.511,0,0,1,.529.349,2.75,2.75,0,0,1,.461.664Z" transform="translate(-2.7 32.782)" fill="#fff"/>
</svg>
