<svg xmlns="http://www.w3.org/2000/svg" width="14" height="13.389" viewBox="0 0 14 13.389">
  <path id="_002-star" data-name="002-star" d="M7.677,1.467l1.579,3.2a.754.754,0,0,0,.568.412l3.531.513a.754.754,0,0,1,.418,1.286L11.217,9.369a.754.754,0,0,0-.217.667l.6,3.517a.754.754,0,0,1-1.094.795l-3.158-1.66a.755.755,0,0,0-.7,0l-3.158,1.66A.754.754,0,0,1,2.4,13.553L3,10.036a.754.754,0,0,0-.217-.667L.229,6.878A.754.754,0,0,1,.647,5.592l3.531-.513a.754.754,0,0,0,.568-.412l1.579-3.2A.754.754,0,0,1,7.677,1.467Z" transform="translate(-0.001 -1.047)" fill="#ffc850"/>
</svg>
